<?xml version="1.0" encoding="UTF-8"?><svg xmlns="http://www.w3.org/2000/svg" xmlns:xlink="http://www.w3.org/1999/xlink" contentScriptType="text/ecmascript" width="375pt" zoomAndPan="magnify" contentStyleType="text/css" viewBox="0 0 375 374.999991" height="374.999991pt" preserveAspectRatio="xMidYMid meet" version="1.2"><defs><g/><clipPath xml:id="clip1" id="clip1"><path d="M 178 113 L 272 113 L 272 215.398438 L 178 215.398438 Z M 178 113 "/></clipPath><clipPath xml:id="clip2" id="clip2"><path d="M 96 105.9375 L 189 105.9375 L 189 208 L 96 208 Z M 96 105.9375 "/></clipPath></defs><g xml:id="surface1" id="surface1"><g clip-rule="nonzero" clip-path="url(#clip1)"><path style=" stroke:none;fill-rule:nonzero;fill:rgb(24.308777%,31.759644%,41.958618%);fill-opacity:1;" d="M 187.652344 187.625 C 188.539062 188.71875 189.492188 189.773438 190.511719 190.789062 C 196.078125 196.34375 202.875 199.929688 210.023438 201.550781 L 210.023438 214.285156 C 200.613281 212.359375 191.644531 207.757812 184.34375 200.46875 C 182.777344 198.90625 181.332031 197.269531 180.011719 195.558594 C 181.148438 194.609375 182.253906 193.597656 183.324219 192.535156 C 184.886719 190.96875 186.335938 189.328125 187.652344 187.625 M 220.285156 113.898438 C 208.679688 113.898438 197.070312 117.839844 187.652344 125.726562 C 199.296875 140.765625 201.3125 160.835938 193.691406 177.617188 C 194.902344 179.613281 196.371094 181.5 198.101562 183.226562 C 203.863281 188.972656 211.417969 191.84375 218.964844 191.84375 C 226.515625 191.84375 234.066406 188.972656 239.828125 183.226562 C 251.351562 171.730469 251.351562 153.09375 239.828125 141.601562 C 234.066406 135.855469 226.515625 132.980469 218.964844 132.980469 L 218.960938 132.980469 L 218.960938 122.273438 C 229.261719 122.273438 239.554688 126.1875 247.410156 134.027344 C 263.125 149.699219 263.125 175.117188 247.410156 190.789062 C 240.023438 198.164062 230.476562 202.066406 220.800781 202.503906 L 220.800781 215.320312 C 233.636719 215.191406 246.441406 210.242188 256.234375 200.46875 C 276.085938 180.664062 276.085938 148.554688 256.234375 128.75 C 246.304688 118.847656 233.296875 113.898438 220.285156 113.898438 M 189.457031 162.40625 L 178.730469 162.40625 C 178.730469 171.347656 181.707031 180.289062 187.65625 187.621094 C 190.085938 184.480469 192.097656 181.113281 193.691406 177.609375 C 190.871094 172.953125 189.457031 167.683594 189.457031 162.40625 "/></g><g clip-rule="nonzero" clip-path="url(#clip2)"><path style=" stroke:none;fill-rule:nonzero;fill:rgb(14.898682%,41.958618%,87.449646%);fill-opacity:1;" d="M 180.011719 133.664062 C 185.960938 141 188.933594 149.9375 188.933594 158.875 L 178.207031 158.875 C 178.207031 153.601562 176.792969 148.332031 173.96875 143.667969 C 175.5625 140.167969 177.578125 136.804688 180.011719 133.664062 M 157.640625 107.003906 L 157.640625 119.738281 C 164.789062 121.355469 171.582031 124.941406 177.152344 130.492188 C 178.167969 131.511719 179.125 132.570312 180.011719 133.664062 C 181.328125 131.957031 182.777344 130.316406 184.339844 128.753906 C 185.410156 127.6875 186.511719 126.675781 187.648438 125.726562 C 186.332031 124.023438 184.886719 122.382812 183.320312 120.816406 C 176.023438 113.53125 167.046875 108.925781 157.640625 107.003906 M 146.863281 105.960938 C 134.023438 106.089844 121.222656 111.042969 111.429688 120.8125 C 91.578125 140.617188 91.578125 172.726562 111.429688 192.535156 C 121.359375 202.4375 134.367188 207.390625 147.375 207.390625 C 158.988281 207.390625 170.59375 203.449219 180.011719 195.558594 C 168.371094 180.519531 166.355469 160.449219 173.976562 143.667969 C 172.765625 141.671875 171.296875 139.785156 169.566406 138.0625 C 163.808594 132.3125 156.257812 129.4375 148.707031 129.4375 C 141.15625 129.4375 133.605469 132.3125 127.84375 138.0625 C 116.324219 149.554688 116.324219 168.191406 127.84375 179.6875 C 133.597656 185.4375 141.148438 188.3125 148.699219 188.3125 L 148.699219 199.015625 C 138.402344 199.015625 128.105469 195.09375 120.25 187.257812 C 104.539062 171.582031 104.539062 146.171875 120.25 130.492188 C 127.640625 123.125 137.1875 119.222656 146.863281 118.78125 L 146.863281 105.960938 "/></g><g style="fill:rgb(24.308777%,31.759644%,41.958618%);fill-opacity:1;"><g transform="translate(126.336823, 250.612704)"><path style="stroke:none;" d="M 11.210938 0.261719 C 15.078125 0.261719 18.425781 -1.917969 20.082031 -5.101562 L 16.375 -7.019531 C 15.433594 -5.167969 13.515625 -3.933594 11.210938 -3.933594 C 7.929688 -3.933594 5.425781 -6.464844 5.425781 -9.75 C 5.425781 -13.03125 7.929688 -15.566406 11.210938 -15.566406 C 13.515625 -15.566406 15.433594 -14.328125 16.375 -12.476562 L 20.082031 -14.394531 C 18.425781 -17.578125 15.078125 -19.757812 11.210938 -19.757812 C 5.6875 -19.757812 1.203125 -15.273438 1.203125 -9.75 C 1.203125 -4.222656 5.6875 0.261719 11.210938 0.261719 Z M 11.210938 0.261719 "/></g></g><g style="fill:rgb(24.308777%,31.759644%,41.958618%);fill-opacity:1;"><g transform="translate(146.74058, 250.612704)"><path style="stroke:none;" d="M 9.714844 -13.257812 C 8.285156 -13.257812 6.984375 -12.609375 6.078125 -11.535156 L 6.078125 -22.257812 L 1.917969 -22.257812 L 1.917969 0 L 6.078125 0 L 6.078125 -7.34375 C 6.078125 -8.480469 7.019531 -9.585938 8.285156 -9.585938 C 9.457031 -9.585938 10.269531 -8.675781 10.269531 -7.539062 L 10.269531 0 L 14.425781 0 L 14.425781 -8.222656 C 14.425781 -11.082031 12.347656 -13.257812 9.714844 -13.257812 Z M 9.714844 -13.257812 "/></g></g><g style="fill:rgb(24.308777%,31.759644%,41.958618%);fill-opacity:1;"><g transform="translate(162.270791, 250.612704)"><path style="stroke:none;" d="M 16.410156 -3.378906 C 15.855469 -3.378906 15.273438 -3.574219 15.273438 -4.648438 L 15.273438 -12.996094 L 11.144531 -12.996094 L 11.144531 -11.859375 C 10.171875 -12.738281 8.9375 -13.257812 7.441406 -13.257812 C 3.835938 -13.257812 1.007812 -10.269531 1.007812 -6.5 C 1.007812 -2.730469 3.835938 0.261719 7.441406 0.261719 C 9.324219 0.261719 10.851562 -0.585938 11.894531 -1.949219 C 12.703125 -0.617188 14.136719 0.261719 15.890625 0.261719 C 16.3125 0.261719 16.703125 0.128906 16.996094 0 L 16.996094 -3.378906 Z M 8.253906 -3.410156 C 6.53125 -3.410156 5.167969 -4.777344 5.167969 -6.5 C 5.167969 -8.222656 6.53125 -9.585938 8.253906 -9.585938 C 9.941406 -9.585938 11.339844 -8.222656 11.339844 -6.5 C 11.339844 -4.777344 9.941406 -3.410156 8.253906 -3.410156 Z M 8.253906 -3.410156 "/></g></g><g style="fill:rgb(24.308777%,31.759644%,41.958618%);fill-opacity:1;"><g transform="translate(179.230576, 250.612704)"><path style="stroke:none;" d="M 4.0625 -15.175781 C 5.296875 -15.175781 6.335938 -16.214844 6.335938 -17.449219 C 6.335938 -18.714844 5.296875 -19.722656 4.0625 -19.722656 C 2.828125 -19.722656 1.789062 -18.714844 1.789062 -17.449219 C 1.789062 -16.214844 2.828125 -15.175781 4.0625 -15.175781 Z M 1.980469 0 L 6.109375 0 L 6.109375 -12.996094 L 1.980469 -12.996094 Z M 1.980469 0 "/></g></g><g style="fill:rgb(24.308777%,31.759644%,41.958618%);fill-opacity:1;"><g transform="translate(186.833155, 250.612704)"><path style="stroke:none;" d="M 9.78125 -13.257812 C 8.285156 -13.257812 6.984375 -12.542969 6.078125 -11.40625 L 6.078125 -12.996094 L 1.917969 -12.996094 L 1.917969 0 L 6.078125 0 L 6.078125 -7.539062 C 6.078125 -8.707031 7.050781 -9.585938 8.253906 -9.585938 C 9.457031 -9.585938 10.300781 -8.707031 10.300781 -7.539062 L 10.300781 0 L 14.425781 0 L 14.425781 -8.222656 C 14.425781 -11.082031 12.347656 -13.257812 9.78125 -13.257812 Z M 9.78125 -13.257812 "/></g></g><g style="fill:rgb(24.308777%,31.759644%,41.958618%);fill-opacity:1;"><g transform="translate(202.395854, 250.612704)"><path style="stroke:none;" d="M 1.917969 0 L 6.078125 0 L 6.078125 -22.257812 L 1.917969 -22.257812 Z M 1.917969 0 "/></g></g><g style="fill:rgb(24.308777%,31.759644%,41.958618%);fill-opacity:1;"><g transform="translate(209.868474, 250.612704)"><path style="stroke:none;" d="M 4.0625 -15.175781 C 5.296875 -15.175781 6.335938 -16.214844 6.335938 -17.449219 C 6.335938 -18.714844 5.296875 -19.722656 4.0625 -19.722656 C 2.828125 -19.722656 1.789062 -18.714844 1.789062 -17.449219 C 1.789062 -16.214844 2.828125 -15.175781 4.0625 -15.175781 Z M 1.980469 0 L 6.109375 0 L 6.109375 -12.996094 L 1.980469 -12.996094 Z M 1.980469 0 "/></g></g><g style="fill:rgb(24.308777%,31.759644%,41.958618%);fill-opacity:1;"><g transform="translate(217.471052, 250.612704)"><path style="stroke:none;" d="M 9.78125 -13.257812 C 8.285156 -13.257812 6.984375 -12.542969 6.078125 -11.40625 L 6.078125 -12.996094 L 1.917969 -12.996094 L 1.917969 0 L 6.078125 0 L 6.078125 -7.539062 C 6.078125 -8.707031 7.050781 -9.585938 8.253906 -9.585938 C 9.457031 -9.585938 10.300781 -8.707031 10.300781 -7.539062 L 10.300781 0 L 14.425781 0 L 14.425781 -8.222656 C 14.425781 -11.082031 12.347656 -13.257812 9.78125 -13.257812 Z M 9.78125 -13.257812 "/></g></g><g style="fill:rgb(24.308777%,31.759644%,41.958618%);fill-opacity:1;"><g transform="translate(233.033758, 250.612704)"><path style="stroke:none;" d="M 16.214844 0 L 10.039062 -7.117188 L 15.726562 -12.996094 L 10.753906 -12.996094 L 6.238281 -8.320312 L 6.238281 -22.257812 L 2.113281 -22.257812 L 2.113281 0 L 6.238281 0 L 6.238281 -5.980469 L 10.820312 0 Z M 16.214844 0 "/></g></g><g style="fill:rgb(24.308777%,31.759644%,41.958618%);fill-opacity:1;"><g transform="translate(109.015522, 267.037718)"><path style="stroke:none;" d="M 3.46875 -6.34375 C 4.28125 -6.34375 4.910156 -6.144531 5.359375 -5.75 C 5.816406 -5.351562 6.078125 -4.832031 6.140625 -4.1875 L 6.15625 -4.109375 L 4.90625 -4.109375 L 4.890625 -4.1875 C 4.734375 -5 4.253906 -5.40625 3.453125 -5.40625 C 2.941406 -5.40625 2.53125 -5.203125 2.21875 -4.796875 C 1.914062 -4.390625 1.765625 -3.835938 1.765625 -3.140625 C 1.765625 -2.390625 1.914062 -1.8125 2.21875 -1.40625 C 2.53125 -1 2.929688 -0.796875 3.421875 -0.796875 C 3.816406 -0.796875 4.132812 -0.90625 4.375 -1.125 C 4.625 -1.351562 4.789062 -1.664062 4.875 -2.0625 L 4.890625 -2.15625 L 6.125 -2.15625 L 6.109375 -2.0625 C 6.046875 -1.382812 5.769531 -0.847656 5.28125 -0.453125 C 4.789062 -0.0664062 4.15625 0.125 3.375 0.125 C 2.5 0.125 1.789062 -0.160156 1.25 -0.734375 C 0.71875 -1.316406 0.453125 -2.09375 0.453125 -3.0625 C 0.453125 -4.0625 0.734375 -4.859375 1.296875 -5.453125 C 1.867188 -6.046875 2.59375 -6.34375 3.46875 -6.34375 Z M 3.46875 -6.34375 "/></g></g><g style="fill:rgb(24.308777%,31.759644%,41.958618%);fill-opacity:1;"><g transform="translate(116.557565, 267.037718)"><path style="stroke:none;" d="M 3.53125 -6.34375 C 4.476562 -6.34375 5.222656 -6.046875 5.765625 -5.453125 C 6.316406 -4.867188 6.59375 -4.085938 6.59375 -3.109375 C 6.59375 -2.128906 6.316406 -1.34375 5.765625 -0.75 C 5.222656 -0.164062 4.476562 0.125 3.53125 0.125 C 2.582031 0.125 1.832031 -0.164062 1.28125 -0.75 C 0.726562 -1.34375 0.453125 -2.128906 0.453125 -3.109375 C 0.453125 -4.085938 0.722656 -4.867188 1.265625 -5.453125 C 1.816406 -6.046875 2.570312 -6.34375 3.53125 -6.34375 Z M 2.21875 -1.40625 C 2.539062 -1 2.976562 -0.796875 3.53125 -0.796875 C 4.082031 -0.796875 4.515625 -1 4.828125 -1.40625 C 5.140625 -1.820312 5.296875 -2.390625 5.296875 -3.109375 C 5.296875 -3.828125 5.140625 -4.390625 4.828125 -4.796875 C 4.515625 -5.203125 4.082031 -5.40625 3.53125 -5.40625 C 2.96875 -5.40625 2.53125 -5.203125 2.21875 -4.796875 C 1.90625 -4.390625 1.75 -3.820312 1.75 -3.09375 C 1.75 -2.375 1.90625 -1.8125 2.21875 -1.40625 Z M 2.21875 -1.40625 "/></g></g><g style="fill:rgb(24.308777%,31.759644%,41.958618%);fill-opacity:1;"><g transform="translate(124.522617, 267.037718)"><path style="stroke:none;" d="M 6.25 0 L 4.546875 0 L 2 -4.71875 C 2.03125 -4.15625 2.046875 -3.519531 2.046875 -2.8125 L 2.046875 0 L 0.796875 0 L 0.796875 -6.203125 L 2.453125 -6.203125 L 5.0625 -1.40625 C 5.03125 -1.957031 5.015625 -2.609375 5.015625 -3.359375 L 5.015625 -6.203125 L 6.25 -6.203125 Z M 6.25 0 "/></g></g><g style="fill:rgb(24.308777%,31.759644%,41.958618%);fill-opacity:1;"><g transform="translate(132.44267, 267.037718)"><path style="stroke:none;" d="M 6.25 0 L 4.546875 0 L 2 -4.71875 C 2.03125 -4.15625 2.046875 -3.519531 2.046875 -2.8125 L 2.046875 0 L 0.796875 0 L 0.796875 -6.203125 L 2.453125 -6.203125 L 5.0625 -1.40625 C 5.03125 -1.957031 5.015625 -2.609375 5.015625 -3.359375 L 5.015625 -6.203125 L 6.25 -6.203125 Z M 6.25 0 "/></g></g><g style="fill:rgb(24.308777%,31.759644%,41.958618%);fill-opacity:1;"><g transform="translate(140.362724, 267.037718)"><path style="stroke:none;" d="M 5.28125 -0.984375 L 5.28125 0 L 0.796875 0 L 0.796875 -6.203125 L 5.1875 -6.203125 L 5.1875 -5.234375 L 2.046875 -5.234375 L 2.046875 -3.59375 L 4.96875 -3.59375 L 4.96875 -2.625 L 2.046875 -2.625 L 2.046875 -0.984375 Z M 5.28125 -0.984375 "/></g></g><g style="fill:rgb(24.308777%,31.759644%,41.958618%);fill-opacity:1;"><g transform="translate(146.98677, 267.037718)"><path style="stroke:none;" d="M 3.46875 -6.34375 C 4.28125 -6.34375 4.910156 -6.144531 5.359375 -5.75 C 5.816406 -5.351562 6.078125 -4.832031 6.140625 -4.1875 L 6.15625 -4.109375 L 4.90625 -4.109375 L 4.890625 -4.1875 C 4.734375 -5 4.253906 -5.40625 3.453125 -5.40625 C 2.941406 -5.40625 2.53125 -5.203125 2.21875 -4.796875 C 1.914062 -4.390625 1.765625 -3.835938 1.765625 -3.140625 C 1.765625 -2.390625 1.914062 -1.8125 2.21875 -1.40625 C 2.53125 -1 2.929688 -0.796875 3.421875 -0.796875 C 3.816406 -0.796875 4.132812 -0.90625 4.375 -1.125 C 4.625 -1.351562 4.789062 -1.664062 4.875 -2.0625 L 4.890625 -2.15625 L 6.125 -2.15625 L 6.109375 -2.0625 C 6.046875 -1.382812 5.769531 -0.847656 5.28125 -0.453125 C 4.789062 -0.0664062 4.15625 0.125 3.375 0.125 C 2.5 0.125 1.789062 -0.160156 1.25 -0.734375 C 0.71875 -1.316406 0.453125 -2.09375 0.453125 -3.0625 C 0.453125 -4.0625 0.734375 -4.859375 1.296875 -5.453125 C 1.867188 -6.046875 2.59375 -6.34375 3.46875 -6.34375 Z M 3.46875 -6.34375 "/></g></g><g style="fill:rgb(24.308777%,31.759644%,41.958618%);fill-opacity:1;"><g transform="translate(154.528815, 267.037718)"><path style="stroke:none;" d="M 5.65625 -5.234375 L 3.5625 -5.234375 L 3.5625 0 L 2.3125 0 L 2.3125 -5.234375 L 0.203125 -5.234375 L 0.203125 -6.203125 L 5.65625 -6.203125 Z M 5.65625 -5.234375 "/></g></g><g style="fill:rgb(24.308777%,31.759644%,41.958618%);fill-opacity:1;"><g transform="translate(161.21586, 267.037718)"><path style="stroke:none;" d="M 2.046875 0 L 0.796875 0 L 0.796875 -6.203125 L 2.046875 -6.203125 Z M 2.046875 0 "/></g></g><g style="fill:rgb(24.308777%,31.759644%,41.958618%);fill-opacity:1;"><g transform="translate(164.923883, 267.037718)"><path style="stroke:none;" d="M 6.25 0 L 4.546875 0 L 2 -4.71875 C 2.03125 -4.15625 2.046875 -3.519531 2.046875 -2.8125 L 2.046875 0 L 0.796875 0 L 0.796875 -6.203125 L 2.453125 -6.203125 L 5.0625 -1.40625 C 5.03125 -1.957031 5.015625 -2.609375 5.015625 -3.359375 L 5.015625 -6.203125 L 6.25 -6.203125 Z M 6.25 0 "/></g></g><g style="fill:rgb(24.308777%,31.759644%,41.958618%);fill-opacity:1;"><g transform="translate(172.843938, 267.037718)"><path style="stroke:none;" d="M 3.640625 -3.171875 L 6.140625 -3.171875 L 6.140625 0 L 5.140625 0 L 5.0625 -1.015625 L 4.78125 -0.375 C 4.445312 -0.0390625 3.945312 0.125 3.28125 0.125 C 2.414062 0.125 1.726562 -0.160156 1.21875 -0.734375 C 0.707031 -1.304688 0.453125 -2.082031 0.453125 -3.0625 C 0.453125 -4.0625 0.738281 -4.859375 1.3125 -5.453125 C 1.894531 -6.046875 2.628906 -6.34375 3.515625 -6.34375 C 4.328125 -6.34375 4.960938 -6.144531 5.421875 -5.75 C 5.878906 -5.351562 6.140625 -4.832031 6.203125 -4.1875 L 6.203125 -4.109375 L 4.96875 -4.109375 L 4.953125 -4.1875 C 4.785156 -5 4.300781 -5.40625 3.5 -5.40625 C 2.988281 -5.40625 2.570312 -5.203125 2.25 -4.796875 C 1.925781 -4.390625 1.765625 -3.835938 1.765625 -3.140625 C 1.765625 -2.390625 1.921875 -1.8125 2.234375 -1.40625 C 2.546875 -1 2.957031 -0.796875 3.46875 -0.796875 C 3.863281 -0.796875 4.195312 -0.914062 4.46875 -1.15625 C 4.738281 -1.40625 4.898438 -1.753906 4.953125 -2.203125 L 3.640625 -2.203125 Z M 3.640625 -3.171875 "/></g></g><g style="fill:rgb(24.308777%,31.759644%,41.958618%);fill-opacity:1;"><g transform="translate(180.556981, 267.037718)"><path style="stroke:none;" d=""/></g></g><g style="fill:rgb(24.308777%,31.759644%,41.958618%);fill-opacity:1;"><g transform="translate(183.382996, 267.037718)"><path style="stroke:none;" d="M 5.65625 -5.234375 L 3.5625 -5.234375 L 3.5625 0 L 2.3125 0 L 2.3125 -5.234375 L 0.203125 -5.234375 L 0.203125 -6.203125 L 5.65625 -6.203125 Z M 5.65625 -5.234375 "/></g></g><g style="fill:rgb(24.308777%,31.759644%,41.958618%);fill-opacity:1;"><g transform="translate(190.070042, 267.037718)"><path style="stroke:none;" d="M 5.28125 -0.984375 L 5.28125 0 L 0.796875 0 L 0.796875 -6.203125 L 5.1875 -6.203125 L 5.1875 -5.234375 L 2.046875 -5.234375 L 2.046875 -3.59375 L 4.96875 -3.59375 L 4.96875 -2.625 L 2.046875 -2.625 L 2.046875 -0.984375 Z M 5.28125 -0.984375 "/></g></g><g style="fill:rgb(24.308777%,31.759644%,41.958618%);fill-opacity:1;"><g transform="translate(196.694088, 267.037718)"><path style="stroke:none;" d="M 3.46875 -6.34375 C 4.28125 -6.34375 4.910156 -6.144531 5.359375 -5.75 C 5.816406 -5.351562 6.078125 -4.832031 6.140625 -4.1875 L 6.15625 -4.109375 L 4.90625 -4.109375 L 4.890625 -4.1875 C 4.734375 -5 4.253906 -5.40625 3.453125 -5.40625 C 2.941406 -5.40625 2.53125 -5.203125 2.21875 -4.796875 C 1.914062 -4.390625 1.765625 -3.835938 1.765625 -3.140625 C 1.765625 -2.390625 1.914062 -1.8125 2.21875 -1.40625 C 2.53125 -1 2.929688 -0.796875 3.421875 -0.796875 C 3.816406 -0.796875 4.132812 -0.90625 4.375 -1.125 C 4.625 -1.351562 4.789062 -1.664062 4.875 -2.0625 L 4.890625 -2.15625 L 6.125 -2.15625 L 6.109375 -2.0625 C 6.046875 -1.382812 5.769531 -0.847656 5.28125 -0.453125 C 4.789062 -0.0664062 4.15625 0.125 3.375 0.125 C 2.5 0.125 1.789062 -0.160156 1.25 -0.734375 C 0.71875 -1.316406 0.453125 -2.09375 0.453125 -3.0625 C 0.453125 -4.0625 0.734375 -4.859375 1.296875 -5.453125 C 1.867188 -6.046875 2.59375 -6.34375 3.46875 -6.34375 Z M 3.46875 -6.34375 "/></g></g><g style="fill:rgb(24.308777%,31.759644%,41.958618%);fill-opacity:1;"><g transform="translate(204.236133, 267.037718)"><path style="stroke:none;" d="M 6.1875 -6.203125 L 6.1875 0 L 4.953125 0 L 4.953125 -2.546875 L 2.046875 -2.546875 L 2.046875 0 L 0.796875 0 L 0.796875 -6.203125 L 2.046875 -6.203125 L 2.046875 -3.53125 L 4.953125 -3.53125 L 4.953125 -6.203125 Z M 6.1875 -6.203125 "/></g></g><g style="fill:rgb(24.308777%,31.759644%,41.958618%);fill-opacity:1;"><g transform="translate(212.084176, 267.037718)"><path style="stroke:none;" d="M 6.25 0 L 4.546875 0 L 2 -4.71875 C 2.03125 -4.15625 2.046875 -3.519531 2.046875 -2.8125 L 2.046875 0 L 0.796875 0 L 0.796875 -6.203125 L 2.453125 -6.203125 L 5.0625 -1.40625 C 5.03125 -1.957031 5.015625 -2.609375 5.015625 -3.359375 L 5.015625 -6.203125 L 6.25 -6.203125 Z M 6.25 0 "/></g></g><g style="fill:rgb(24.308777%,31.759644%,41.958618%);fill-opacity:1;"><g transform="translate(220.004231, 267.037718)"><path style="stroke:none;" d="M 3.53125 -6.34375 C 4.476562 -6.34375 5.222656 -6.046875 5.765625 -5.453125 C 6.316406 -4.867188 6.59375 -4.085938 6.59375 -3.109375 C 6.59375 -2.128906 6.316406 -1.34375 5.765625 -0.75 C 5.222656 -0.164062 4.476562 0.125 3.53125 0.125 C 2.582031 0.125 1.832031 -0.164062 1.28125 -0.75 C 0.726562 -1.34375 0.453125 -2.128906 0.453125 -3.109375 C 0.453125 -4.085938 0.722656 -4.867188 1.265625 -5.453125 C 1.816406 -6.046875 2.570312 -6.34375 3.53125 -6.34375 Z M 2.21875 -1.40625 C 2.539062 -1 2.976562 -0.796875 3.53125 -0.796875 C 4.082031 -0.796875 4.515625 -1 4.828125 -1.40625 C 5.140625 -1.820312 5.296875 -2.390625 5.296875 -3.109375 C 5.296875 -3.828125 5.140625 -4.390625 4.828125 -4.796875 C 4.515625 -5.203125 4.082031 -5.40625 3.53125 -5.40625 C 2.96875 -5.40625 2.53125 -5.203125 2.21875 -4.796875 C 1.90625 -4.390625 1.75 -3.820312 1.75 -3.09375 C 1.75 -2.375 1.90625 -1.8125 2.21875 -1.40625 Z M 2.21875 -1.40625 "/></g></g><g style="fill:rgb(24.308777%,31.759644%,41.958618%);fill-opacity:1;"><g transform="translate(227.969284, 267.037718)"><path style="stroke:none;" d="M 5.28125 -1.03125 L 5.28125 0 L 0.796875 0 L 0.796875 -6.203125 L 2.046875 -6.203125 L 2.046875 -1.03125 Z M 5.28125 -1.03125 "/></g></g><g style="fill:rgb(24.308777%,31.759644%,41.958618%);fill-opacity:1;"><g transform="translate(234.48532, 267.037718)"><path style="stroke:none;" d="M 3.53125 -6.34375 C 4.476562 -6.34375 5.222656 -6.046875 5.765625 -5.453125 C 6.316406 -4.867188 6.59375 -4.085938 6.59375 -3.109375 C 6.59375 -2.128906 6.316406 -1.34375 5.765625 -0.75 C 5.222656 -0.164062 4.476562 0.125 3.53125 0.125 C 2.582031 0.125 1.832031 -0.164062 1.28125 -0.75 C 0.726562 -1.34375 0.453125 -2.128906 0.453125 -3.109375 C 0.453125 -4.085938 0.722656 -4.867188 1.265625 -5.453125 C 1.816406 -6.046875 2.570312 -6.34375 3.53125 -6.34375 Z M 2.21875 -1.40625 C 2.539062 -1 2.976562 -0.796875 3.53125 -0.796875 C 4.082031 -0.796875 4.515625 -1 4.828125 -1.40625 C 5.140625 -1.820312 5.296875 -2.390625 5.296875 -3.109375 C 5.296875 -3.828125 5.140625 -4.390625 4.828125 -4.796875 C 4.515625 -5.203125 4.082031 -5.40625 3.53125 -5.40625 C 2.96875 -5.40625 2.53125 -5.203125 2.21875 -4.796875 C 1.90625 -4.390625 1.75 -3.820312 1.75 -3.09375 C 1.75 -2.375 1.90625 -1.8125 2.21875 -1.40625 Z M 2.21875 -1.40625 "/></g></g><g style="fill:rgb(24.308777%,31.759644%,41.958618%);fill-opacity:1;"><g transform="translate(242.450373, 267.037718)"><path style="stroke:none;" d="M 3.640625 -3.171875 L 6.140625 -3.171875 L 6.140625 0 L 5.140625 0 L 5.0625 -1.015625 L 4.78125 -0.375 C 4.445312 -0.0390625 3.945312 0.125 3.28125 0.125 C 2.414062 0.125 1.726562 -0.160156 1.21875 -0.734375 C 0.707031 -1.304688 0.453125 -2.082031 0.453125 -3.0625 C 0.453125 -4.0625 0.738281 -4.859375 1.3125 -5.453125 C 1.894531 -6.046875 2.628906 -6.34375 3.515625 -6.34375 C 4.328125 -6.34375 4.960938 -6.144531 5.421875 -5.75 C 5.878906 -5.351562 6.140625 -4.832031 6.203125 -4.1875 L 6.203125 -4.109375 L 4.96875 -4.109375 L 4.953125 -4.1875 C 4.785156 -5 4.300781 -5.40625 3.5 -5.40625 C 2.988281 -5.40625 2.570312 -5.203125 2.25 -4.796875 C 1.925781 -4.390625 1.765625 -3.835938 1.765625 -3.140625 C 1.765625 -2.390625 1.921875 -1.8125 2.234375 -1.40625 C 2.546875 -1 2.957031 -0.796875 3.46875 -0.796875 C 3.863281 -0.796875 4.195312 -0.914062 4.46875 -1.15625 C 4.738281 -1.40625 4.898438 -1.753906 4.953125 -2.203125 L 3.640625 -2.203125 Z M 3.640625 -3.171875 "/></g></g><g style="fill:rgb(24.308777%,31.759644%,41.958618%);fill-opacity:1;"><g transform="translate(250.163416, 267.037718)"><path style="stroke:none;" d="M 2.046875 0 L 0.796875 0 L 0.796875 -6.203125 L 2.046875 -6.203125 Z M 2.046875 0 "/></g></g><g style="fill:rgb(24.308777%,31.759644%,41.958618%);fill-opacity:1;"><g transform="translate(253.871439, 267.037718)"><path style="stroke:none;" d="M 5.28125 -0.984375 L 5.28125 0 L 0.796875 0 L 0.796875 -6.203125 L 5.1875 -6.203125 L 5.1875 -5.234375 L 2.046875 -5.234375 L 2.046875 -3.59375 L 4.96875 -3.59375 L 4.96875 -2.625 L 2.046875 -2.625 L 2.046875 -0.984375 Z M 5.28125 -0.984375 "/></g></g><g style="fill:rgb(24.308777%,31.759644%,41.958618%);fill-opacity:1;"><g transform="translate(260.495485, 267.037718)"><path style="stroke:none;" d="M 2.859375 -6.34375 C 3.566406 -6.34375 4.109375 -6.164062 4.484375 -5.8125 C 4.859375 -5.457031 5.082031 -4.984375 5.15625 -4.390625 L 3.890625 -4.390625 C 3.847656 -4.710938 3.738281 -4.960938 3.5625 -5.140625 C 3.382812 -5.316406 3.132812 -5.40625 2.8125 -5.40625 C 2.5625 -5.40625 2.351562 -5.34375 2.1875 -5.21875 C 2.019531 -5.09375 1.9375 -4.910156 1.9375 -4.671875 C 1.9375 -4.410156 2.035156 -4.203125 2.234375 -4.046875 C 2.429688 -3.898438 2.773438 -3.769531 3.265625 -3.65625 C 3.941406 -3.5 4.441406 -3.257812 4.765625 -2.9375 C 5.085938 -2.625 5.25 -2.210938 5.25 -1.703125 C 5.25 -1.140625 5.023438 -0.691406 4.578125 -0.359375 C 4.140625 -0.0351562 3.597656 0.125 2.953125 0.125 C 2.191406 0.125 1.585938 -0.0390625 1.140625 -0.375 C 0.691406 -0.707031 0.4375 -1.195312 0.375 -1.84375 L 1.640625 -1.84375 C 1.710938 -1.507812 1.863281 -1.25 2.09375 -1.0625 C 2.332031 -0.882812 2.613281 -0.796875 2.9375 -0.796875 C 3.21875 -0.796875 3.457031 -0.867188 3.65625 -1.015625 C 3.851562 -1.160156 3.953125 -1.347656 3.953125 -1.578125 C 3.953125 -1.847656 3.859375 -2.0625 3.671875 -2.21875 C 3.484375 -2.382812 3.160156 -2.519531 2.703125 -2.625 C 2.015625 -2.789062 1.5 -3.015625 1.15625 -3.296875 C 0.8125 -3.578125 0.640625 -3.984375 0.640625 -4.515625 C 0.640625 -5.066406 0.851562 -5.507812 1.28125 -5.84375 C 1.71875 -6.175781 2.242188 -6.34375 2.859375 -6.34375 Z M 2.859375 -6.34375 "/></g></g></g></svg>